<svg width="12" height="12" viewBox="0 0 12 12" xmlns="http://www.w3.org/2000/svg">
<path clip-rule="evenodd" d="M10.7076 6.29311C10.8948 6.48064 11 6.73496 11 7.00012C11 7.26529 10.8948 7.51961 10.7076 7.70714L6.71239 11.7072C6.52509 11.8947 6.27109 12 6.00624 12C5.7414 12 5.4874 11.8947 5.3001 11.7072L1.30492 7.70714C1.20953 7.61489 1.13343 7.50454 1.08109 7.38254C1.02874 7.26053 1.00119 7.12931 1.00004 6.99653C0.998885 6.86374 1.02416 6.73206 1.07438 6.60916C1.1246 6.48627 1.19876 6.37461 1.29254 6.28072C1.38632 6.18682 1.49784 6.11257 1.62058 6.06229C1.74333 6.012 1.87485 5.9867 2.00747 5.98786C2.14009 5.98901 2.27115 6.0166 2.39301 6.06901C2.51487 6.12142 2.62508 6.1976 2.71721 6.29311L5.00745 8.58615V1.00002C5.00745 0.734797 5.11268 0.480438 5.29999 0.292899C5.4873 0.105359 5.74135 0 6.00624 0C6.27114 0 6.52519 0.105359 6.7125 0.292899C6.89981 0.480438 7.00504 0.734797 7.00504 1.00002V8.58615L9.29527 6.29311C9.48257 6.10564 9.73657 6.00032 10.0014 6.00032C10.2663 6.00032 10.5203 6.10564 10.7076 6.29311Z" />
</svg>
