<?xml version="1.0" encoding="utf-8"?>
<!-- Generator: Adobe Illustrator 23.0.3, SVG Export Plug-In . SVG Version: 6.00 Build 0)  -->
<svg version="1.1" id="Layer_1" xmlns="http://www.w3.org/2000/svg" xmlns:xlink="http://www.w3.org/1999/xlink" x="0px" y="0px"
	 viewBox="0 0 175.7 146.6" style="enable-background:new 0 0 175.7 146.6;" xml:space="preserve">
<style type="text/css">
	.st0{fill:#28E6D6;}
	.st1{filter:url(#Adobe_OpacityMaskFilter);}
	.st2{fill-rule:evenodd;clip-rule:evenodd;fill:#FFFFFF;}
	.st3{mask:url(#mask-4_2_);fill-rule:evenodd;clip-rule:evenodd;fill:url(#Fill-4_1_);}
</style>
<title>logo_vectorial</title>
<desc>Created with Sketch.</desc>
<g id="Clip-2">
</g>
<g id="Clip-5">
</g>
<g id="Clip-8">
</g>
<g>
	<g>
		<path class="st0" d="M38.1,108.4c-0.1-0.2-0.2-0.4-0.3-0.6c-0.1-0.1-0.2-0.3-0.2-0.4l-11.3,1.1L23.5,127c0.6,0.6,1.2,1.1,1.8,1.6
			l2.7-18.3l10.5-1C38.4,109,38.2,108.7,38.1,108.4z"/>
		<path class="st0" d="M41.5,114c-0.2-0.3-0.3-0.5-0.5-0.8c-0.1-0.2-0.3-0.4-0.4-0.6c0,0-0.1-0.1-0.1-0.1l-8.9,2.2l-0.1,18.8
			c0.7,0.5,1.4,0.9,2.1,1.4l0.1-18.5l8.1-2C41.6,114.2,41.6,114.1,41.5,114z"/>
		<path class="st0" d="M49.6,124.1c-0.2-0.2-0.3-0.3-0.4-0.5c-0.2-0.2-0.4-0.4-0.6-0.7c-0.1-0.1-0.3-0.3-0.4-0.4l-3.6,2l5.1,18.1
			c0.8,0.3,1.6,0.5,2.4,0.8l-5-17.9L49.6,124.1z"/>
		<path class="st0" d="M45.4,119.3c-0.2-0.2-0.3-0.4-0.5-0.6c-0.1-0.2-0.3-0.4-0.4-0.6c-0.1-0.2-0.3-0.4-0.4-0.5l-6.3,2.5l2.5,18.6
			c0.7,0.4,1.5,0.7,2.2,1.1L40,121.4L45.4,119.3z"/>
		<path class="st0" d="M35.8,103.8c-0.1-0.2-0.2-0.4-0.3-0.6c-0.1-0.3-0.3-0.6-0.4-0.9c0-0.1,0-0.1-0.1-0.2l-13.2-0.5l-5.3,18
			c0.5,0.6,1.1,1.3,1.6,1.9l5.2-17.8l12.6,0.5C35.9,104.1,35.9,104,35.8,103.8z"/>
		<path class="st0" d="M29.8,82.8c0-0.2,0-0.4-0.1-0.6c0-0.4-0.1-0.7-0.1-1.1c0-0.2,0-0.5-0.1-0.7c0-0.1,0-0.2,0-0.3L14.7,69.9
			l-14,12.5c0.1,0.8,0.2,1.7,0.3,2.5l13.9-12.3L29.8,82.8z"/>
		<path class="st0" d="M30.7,88.3c0-0.1-0.1-0.2-0.1-0.4c-0.1-0.6-0.2-1.1-0.3-1.7c0,0,0-0.1,0-0.1c0-0.1,0-0.3-0.1-0.4l-15.4-7.6
			L2.6,92.5c0.2,0.8,0.4,1.6,0.7,2.4l12-14.1L30.7,88.3z"/>
		<path class="st0" d="M33.8,99c-0.1-0.2-0.1-0.3-0.2-0.5c0-0.1-0.1-0.2-0.1-0.2c-0.2-0.5-0.3-0.9-0.5-1.4c0-0.1,0-0.1,0-0.2
			l-14.6-2.7l-7.7,17.1c0.4,0.7,0.9,1.4,1.3,2.1l7.6-16.9L33.8,99z"/>
		<path class="st0" d="M29.2,76.9C29.2,76.9,29.2,76.9,29.2,76.9c0-0.5,0-0.9-0.1-1.3c0-0.2,0-0.4,0-0.6c0-0.3,0-0.7,0-1L15.7,61.8
			L0.1,72.2c0,0.4,0,0.7,0,1.1c0,0.5,0,0.9,0,1.4l15.4-10.3L29.2,76.9z"/>
		<path class="st0" d="M32,93.7C32,93.7,32,93.7,32,93.7c-0.1-0.3-0.2-0.5-0.2-0.8c-0.1-0.3-0.2-0.7-0.3-1c-0.1-0.2-0.1-0.4-0.2-0.7
			L16,86.2L6,102.1c0.3,0.8,0.7,1.5,1,2.3l9.9-15.7L32,93.7z"/>
		<path class="st0" d="M54,128.3c-0.2-0.2-0.5-0.4-0.7-0.6c-0.1-0.1-0.2-0.2-0.3-0.3l-0.9,0.7l7.5,17.2c0.8,0.2,1.6,0.3,2.4,0.4
			l-7.4-16.9C54.4,128.7,54.2,128.5,54,128.3z"/>
		<path class="st0" d="M65.8,136.8c-0.3-0.2-0.6-0.4-0.9-0.5c-0.4-0.2-0.8-0.5-1.2-0.7c-0.2-0.1-0.5-0.3-0.7-0.4
			c-0.2-0.1-0.4-0.3-0.6-0.4l7.2,11.8c0.8,0,1.6,0,2.5,0.1l-5.8-9.5C66.2,137,66,136.9,65.8,136.8z"/>
		<path class="st0" d="M111.1,95.9c-0.5,0.8-1,1.7-1.6,2.5l3.6,17.6c1.5-0.4,3-0.8,4.5-1.4l-2.7-0.1L111.1,95.9z"/>
		<path class="st0" d="M105.6,103.1l0.9,14c0.7-0.1,1.4-0.1,2.1-0.2l-1-16C106.9,101.7,106.3,102.4,105.6,103.1z"/>
		<path class="st0" d="M117,78.6c-0.1,1-0.3,2-0.5,2.9l10.8,15l15.6-6.2c0.4-0.9,0.7-1.7,1-2.6L128.1,94L117,78.6z"/>
		<path class="st0" d="M115.8,84.6c-0.3,1-0.5,1.9-0.9,2.8l8.6,16.4l13.3-3.2c0.7-0.8,1.3-1.7,1.9-2.6l-14.1,3.4L115.8,84.6z"/>
		<path class="st0" d="M113.8,90.4c-0.4,0.9-0.8,1.8-1.2,2.7l6.2,17.4l8.3-0.8c1.1-0.8,2.2-1.6,3.2-2.4l-10.1,1L113.8,90.4z"/>
		<path class="st0" d="M79.6,142.9c-0.3-0.1-0.6-0.2-0.9-0.3c-0.2-0.1-0.5-0.2-0.7-0.3c-0.3-0.1-0.6-0.2-0.9-0.3
			c-0.2-0.1-0.3-0.1-0.5-0.2c-0.1-0.1-0.3-0.1-0.4-0.2l3.8,4.6c0.8-0.1,1.6-0.2,2.5-0.3l-2.4-2.9C79.8,143,79.7,143,79.6,142.9z"/>
		<path class="st0" d="M100.4,117.2c0.7,0,1.4,0.1,2.1,0.1l0.9-11.9c-0.7,0.7-1.5,1.3-2.2,2L100.4,117.2z"/>
		<path class="st0" d="M90.1,115.4c0.7,0.2,1.3,0.4,2,0.5l1.3-3.6c-0.9,0.4-1.8,0.9-2.7,1.3L90.1,115.4z"/>
		<path class="st0" d="M94.9,116.6c0.7,0.1,1.4,0.2,2,0.3l1.7-7.7c-0.8,0.6-1.6,1.1-2.5,1.6L94.9,116.6z"/>
		<path class="st0" d="M45.6,39c0.8-0.6,1.5-1.2,2.3-1.8l2.7-18.1l-17.4-7.1c-0.7,0.5-1.4,0.9-2,1.4l17.1,7L45.6,39z"/>
		<path class="st0" d="M119.3,16.4c-0.6-0.5-1.3-1-2-1.5l-1.4,18.3l-18.7,3.2c0.8,0.5,1.6,1.1,2.4,1.7l18.2-3.1L119.3,16.4z"/>
		<path class="st0" d="M110.9,10.5c-0.7-0.4-1.4-0.8-2.2-1.2l1.2,18.4l-18.1,5.8c0.9,0.4,1.8,0.9,2.6,1.3l17.6-5.6L110.9,10.5z"/>
		<path class="st0" d="M116.7,66.3c0.2,1,0.3,1.9,0.4,2.9l14.5,11.5l14.6-11.3c0-0.8-0.1-1.7-0.2-2.5l-14.4,11.2L116.7,66.3z"/>
		<path class="st0" d="M101.8,5.9c-0.8-0.3-1.5-0.6-2.3-0.9l3.7,18.1l-17.1,8.2c0.9,0.3,1.9,0.6,2.8,1l16.7-8L101.8,5.9z"/>
		<path class="st0" d="M115.4,60.4c0.3,0.9,0.5,1.9,0.8,2.8l16,9.4L145,59.3c-0.2-0.8-0.3-1.6-0.5-2.4L131.7,70L115.4,60.4z"/>
		<path class="st0" d="M117.3,72.4c0,0.3,0,0.6,0,0.9c0,0.7,0,1.4-0.1,2.1L130,88.8l15.9-9c0.1-0.8,0.2-1.7,0.3-2.5l-15.8,9
			L117.3,72.4z"/>
		<path class="st0" d="M92.1,2.5c-0.8-0.2-1.6-0.4-2.4-0.6l6.2,17.4L80.1,29.8c1,0.2,1.9,0.3,2.9,0.6l15.4-10.3L92.1,2.5z"/>
		<path class="st0" d="M113.1,54.6c0.4,0.9,0.8,1.8,1.2,2.7l17.1,7l11-14.9c-0.3-0.8-0.6-1.6-0.8-2.3l-10.8,14.7L113.1,54.6z"/>
		<path class="st0" d="M110.1,49.3c0.5,0.8,1.1,1.7,1.5,2.5l17.9,4.6l8.8-16.3c-0.4-0.7-0.8-1.5-1.2-2.2L128.6,54L110.1,49.3z"/>
		<path class="st0" d="M106.4,44.4c0.6,0.7,1.3,1.5,1.9,2.3l18.4,2l6.4-17.4c-0.5-0.7-1-1.3-1.5-2l-6.4,17.2L106.4,44.4z"/>
		<path class="st0" d="M126.7,23.4c-0.6-0.6-1.1-1.2-1.7-1.8l-3.9,17.9l-19,0.5c0.7,0.6,1.5,1.3,2.2,2l18.5-0.5L126.7,23.4z"/>
		<path class="st0" d="M34,53.1c0.5-0.9,0.9-1.7,1.4-2.6L30.6,33l-18.8,0.5c-0.5,0.7-0.9,1.4-1.3,2.1L29,35.1L34,53.1z"/>
		<path class="st0" d="M37.2,47.9c0.6-0.8,1.2-1.6,1.8-2.3l-2.4-18.1l-18.6-2.1c-0.5,0.6-1.1,1.3-1.6,1.9l18.4,2L37.2,47.9z"/>
		<path class="st0" d="M41.1,43.1c0.7-0.7,1.4-1.4,2.1-2.1l0.1-18.3l-18.2-4.6c-0.6,0.5-1.2,1.1-1.8,1.7l17.9,4.6L41.1,43.1z"/>
		<path class="st0" d="M30,64.7c0.2-1,0.4-1.9,0.7-2.9l-9.5-15.5L3.2,52.1c-0.2,0.8-0.5,1.6-0.7,2.4l17.7-5.6L30,64.7z"/>
		<path class="st0" d="M31.6,58.8c0.3-0.9,0.7-1.8,1.1-2.7l-7.3-16.7L6.9,42.5c-0.3,0.8-0.7,1.5-1,2.3l18.3-3.1L31.6,58.8z"/>
		<path class="st0" d="M50.7,35.5c0.8-0.5,1.7-1,2.6-1.4l5.2-17.6L42.2,7c-0.7,0.4-1.5,0.7-2.2,1.1l16,9.4L50.7,35.5z"/>
		<path class="st0" d="M67.9,29.6c1-0.1,1.9-0.2,2.9-0.3l12-14.1L71.9,0c-0.8,0-1.7,0-2.5,0.1l10.8,15.1L67.9,29.6z"/>
		<path class="st0" d="M61.9,30.8c0.9-0.2,1.9-0.5,2.9-0.6l9.9-15.6l-13-13.6c-0.8,0.1-1.6,0.3-2.4,0.4L72,14.8L61.9,30.8z"/>
		<path class="st0" d="M29.2,70.8c0.1-1,0.1-2,0.3-2.9l-11.6-14L0.9,62c-0.1,0.8-0.2,1.6-0.3,2.4l16.7-8L29.2,70.8z"/>
		<path class="st0" d="M76.9,29.5l13.8-12.3L82.1,0.5c-0.8-0.1-1.6-0.2-2.5-0.3l8.6,16.4L74,29.3c0,0,0.1,0,0.1,0
			c0.8,0,1.7,0.1,2.5,0.1C76.7,29.5,76.8,29.5,76.9,29.5z"/>
		<path class="st0" d="M56.1,32.7c0.9-0.4,1.8-0.7,2.7-1l7.6-16.8L51.7,3.3c-0.8,0.2-1.6,0.5-2.3,0.8l14.5,11.5L56.1,32.7z"/>
	</g>
	<defs>
		<filter id="Adobe_OpacityMaskFilter" filterUnits="userSpaceOnUse" x="29.1" y="0" width="146.5" height="146.6">
			<feColorMatrix  type="matrix" values="1 0 0 0 0  0 1 0 0 0  0 0 1 0 0  0 0 0 1 0"/>
		</filter>
	</defs>
	<mask maskUnits="userSpaceOnUse" x="29.1" y="0" width="146.5" height="146.6" id="mask-4_2_">
		<g class="st1">
			<path id="path-3_2_" class="st2" d="M87.8,1.5c33.4,6.8,58.6,36.4,58.6,71.8l0,0c0,24.3-19.7,44-44,44l0,0c-0.4,0-0.7,0-1.1,0
				l0,0c-0.1,0-0.3,0-0.4,0l0,0c-0.2,0-0.4,0-0.6,0l0,0c-0.2,0-0.3,0-0.5,0l0,0c-0.2,0-0.3,0-0.5,0l0,0c-0.2,0-0.4,0-0.6,0l0,0
				c-0.1,0-0.3,0-0.4,0l0,0c-0.2,0-0.5,0-0.7-0.1l0,0c0,0-0.1,0-0.1,0l0,0c-22-2.4-39.1-21.1-39.1-43.7l0,0
				c0-19.1,12.2-35.4,29.3-41.5l0,0c-4.6-1.6-9.5-2.5-14.7-2.5l0,0c-24.3,0-44,19.7-44,44l0,0c0,0.6,0,1.2,0,1.8l0,0
				c0,0.2,0,0.4,0,0.6l0,0c0,0.4,0,0.8,0,1.2l0,0c0,0.2,0,0.5,0,0.7l0,0c0,0.4,0,0.7,0.1,1.1l0,0c0,0.2,0,0.5,0.1,0.7l0,0
				c0,0.4,0.1,0.7,0.1,1.1l0,0c0,0.2,0,0.5,0.1,0.7l0,0c0,0.4,0.1,0.7,0.1,1.1l0,0c0,0.2,0.1,0.5,0.1,0.7l0,0
				c0.1,0.4,0.1,0.8,0.2,1.1l0,0c0,0.2,0.1,0.4,0.1,0.6l0,0c0.1,0.5,0.2,1.1,0.3,1.6l0,0c0,0,0,0.1,0,0.1l0,0
				c0.1,0.6,0.2,1.1,0.3,1.7l0,0c0,0.2,0.1,0.4,0.1,0.6l0,0c0.1,0.4,0.2,0.8,0.2,1.1l0,0c0,0.2,0.1,0.4,0.2,0.7l0,0
				c0.1,0.3,0.2,0.7,0.2,1l0,0c0.1,0.2,0.1,0.5,0.2,0.7l0,0c0.1,0.3,0.2,0.7,0.3,1l0,0c0.1,0.2,0.1,0.5,0.2,0.7l0,0
				c0.1,0.3,0.2,0.7,0.3,1l0,0c0.1,0.2,0.1,0.4,0.2,0.6l0,0c0.1,0.3,0.2,0.7,0.3,1l0,0c0.1,0.2,0.1,0.4,0.2,0.6l0,0
				c0.2,0.5,0.3,0.9,0.5,1.4l0,0c0,0.1,0.1,0.2,0.1,0.2l0,0c0.2,0.5,0.4,1,0.6,1.6l0,0c0.1,0.2,0.1,0.4,0.2,0.5l0,0
				c0.1,0.3,0.3,0.7,0.4,1l0,0c0.1,0.2,0.2,0.4,0.3,0.6l0,0c0.1,0.3,0.3,0.6,0.4,0.9l0,0c0.1,0.2,0.2,0.4,0.3,0.6l0,0
				c0.1,0.3,0.3,0.6,0.4,0.9l0,0c0.1,0.2,0.2,0.4,0.3,0.6l0,0c0.1,0.3,0.3,0.6,0.4,0.9l0,0c0.1,0.2,0.2,0.4,0.3,0.6l0,0
				c0.2,0.3,0.3,0.6,0.5,0.9l0,0c0.1,0.2,0.2,0.4,0.3,0.6l0,0c0.2,0.4,0.4,0.7,0.6,1.1l0,0c0.1,0.1,0.1,0.2,0.2,0.3l0,0
				c0.3,0.5,0.5,0.9,0.8,1.4l0,0c0.1,0.2,0.2,0.4,0.3,0.5l0,0c0.2,0.3,0.4,0.6,0.6,0.9l0,0c0.1,0.2,0.3,0.4,0.4,0.6l0,0
				c0.2,0.3,0.3,0.5,0.5,0.8l0,0c0.1,0.2,0.3,0.4,0.4,0.6l0,0c0.2,0.3,0.3,0.5,0.5,0.8l0,0c0.1,0.2,0.3,0.4,0.4,0.6l0,0
				c0.2,0.2,0.4,0.5,0.5,0.7l0,0c0.1,0.2,0.3,0.4,0.4,0.6l0,0c0.2,0.3,0.4,0.5,0.6,0.8l0,0c0.1,0.2,0.3,0.4,0.4,0.6l0,0
				c0.2,0.3,0.5,0.6,0.7,0.9l0,0c0.1,0.1,0.2,0.3,0.4,0.4l0,0c0.3,0.4,0.7,0.8,1,1.2l0,0c0.2,0.2,0.3,0.3,0.5,0.5l0,0
				c0.2,0.2,0.4,0.5,0.6,0.7l0,0c0.2,0.2,0.3,0.4,0.5,0.6l0,0c0.2,0.2,0.4,0.4,0.6,0.7l0,0c0.2,0.2,0.4,0.4,0.5,0.6l0,0
				c0.2,0.2,0.4,0.4,0.6,0.6l0,0c0.2,0.2,0.4,0.4,0.6,0.6l0,0c0.2,0.2,0.4,0.4,0.6,0.6l0,0c0.2,0.2,0.4,0.4,0.6,0.6l0,0
				c0.2,0.2,0.4,0.4,0.6,0.6l0,0c0.2,0.2,0.4,0.4,0.6,0.5l0,0c0.2,0.2,0.5,0.4,0.7,0.6l0,0c0.2,0.2,0.4,0.4,0.7,0.6l0,0
				c0.4,0.3,0.7,0.6,1.1,0.9l0,0c0.2,0.2,0.4,0.3,0.6,0.5l0,0c0.2,0.2,0.5,0.4,0.7,0.5l0,0c0.2,0.2,0.4,0.3,0.7,0.5l0,0
				c0.2,0.2,0.4,0.3,0.7,0.5l0,0c0.2,0.2,0.4,0.3,0.7,0.5l0,0c0.2,0.2,0.4,0.3,0.7,0.5l0,0c0.2,0.2,0.5,0.3,0.7,0.5l0,0
				c0.2,0.2,0.4,0.3,0.7,0.5l0,0c0.2,0.2,0.5,0.3,0.7,0.5l0,0c0.2,0.2,0.5,0.3,0.7,0.4l0,0c0.2,0.2,0.5,0.3,0.7,0.5l0,0
				c0.2,0.1,0.5,0.3,0.7,0.4l0,0c0.4,0.2,0.8,0.5,1.2,0.7l0,0c0.3,0.2,0.6,0.4,0.9,0.5l0,0c0.2,0.1,0.5,0.3,0.7,0.4l0,0
				c0.2,0.1,0.5,0.3,0.7,0.4l0,0c0.3,0.1,0.5,0.3,0.8,0.4l0,0c0.2,0.1,0.5,0.2,0.7,0.4l0,0c0.3,0.1,0.5,0.3,0.8,0.4l0,0
				c0.2,0.1,0.5,0.2,0.7,0.3l0,0c0.3,0.1,0.5,0.3,0.8,0.4l0,0c0.2,0.1,0.5,0.2,0.7,0.3l0,0c0.3,0.1,0.5,0.2,0.8,0.4l0,0
				c0.2,0.1,0.5,0.2,0.7,0.3l0,0c0.3,0.1,0.5,0.2,0.8,0.4l0,0c0.3,0.1,0.5,0.2,0.8,0.3l0,0c0.6,0.2,1.2,0.5,1.7,0.7l0,0
				c0.2,0.1,0.3,0.1,0.5,0.2l0,0c0.3,0.1,0.6,0.2,0.9,0.3l0,0c0.2,0.1,0.5,0.2,0.7,0.3l0,0c0.3,0.1,0.6,0.2,0.9,0.3l0,0
				c0.2,0.1,0.5,0.2,0.7,0.2l0,0c0.3,0.1,0.6,0.2,0.9,0.3l0,0c0.2,0.1,0.5,0.2,0.8,0.2l0,0c0.3,0.1,0.6,0.2,0.9,0.2l0,0
				c0.3,0.1,0.5,0.1,0.8,0.2l0,0c0.3,0.1,0.6,0.2,0.9,0.2l0,0c0.3,0.1,0.5,0.1,0.8,0.2l0,0c0.3,0.1,0.6,0.1,0.9,0.2l0,0
				c0.3,0.1,0.5,0.1,0.8,0.2l0,0c0.3,0.1,0.6,0.1,0.9,0.2l0,0c0.3-0.1,0.6-0.1,0.9-0.2l0,0c-0.3,0.1-0.6,0.1-0.9,0.2l0,0
				c4.7,1,9.6,1.5,14.7,1.5l0,0c40.5,0,73.3-32.8,73.3-73.3l0,0c0-40.5-32.8-73.3-73.3-73.3l0,0C97.4,0,92.5,0.5,87.8,1.5"/>
		</g>
	</mask>
	
		<linearGradient id="Fill-4_1_" gradientUnits="userSpaceOnUse" x1="-328.7462" y1="369.323" x2="-329.5205" y2="369.203" gradientTransform="matrix(146.5155 0 0 -146.58 48340.3008 54197.6055)">
		<stop  offset="0" style="stop-color:#000078"/>
		<stop  offset="1" style="stop-color:#29E7D6"/>
	</linearGradient>
	<path id="Fill-4" class="st3" d="M146.4,73.3c0,24.3-19.7,44-44,44c-0.4,0-0.7,0-1.1,0c-0.1,0-0.3,0-0.4,0c-0.2,0-0.4,0-0.6,0
		c-0.2,0-0.3,0-0.5,0c-0.2,0-0.3,0-0.5,0c-0.2,0-0.4,0-0.6,0c-0.1,0-0.3,0-0.4,0c-0.2,0-0.5,0-0.7-0.1c0,0-0.1,0-0.1,0
		c-22-2.4-39.1-21.1-39.1-43.7c0-19.1,12.2-35.4,29.3-41.5c-4.6-1.6-9.5-2.5-14.7-2.5c-24.3,0-44,19.7-44,44c0,0.6,0,1.2,0,1.8
		c0,0.2,0,0.4,0,0.6c0,0.4,0,0.8,0,1.2c0,0.2,0,0.5,0,0.7c0,0.4,0,0.7,0.1,1.1c0,0.2,0,0.5,0.1,0.7c0,0.4,0.1,0.7,0.1,1.1
		c0,0.2,0,0.5,0.1,0.7c0,0.4,0.1,0.7,0.1,1.1c0,0.2,0.1,0.5,0.1,0.7c0.1,0.4,0.1,0.8,0.2,1.1c0,0.2,0.1,0.4,0.1,0.6
		c0.1,0.5,0.2,1.1,0.3,1.6c0,0,0,0.1,0,0.1c0.1,0.6,0.2,1.1,0.3,1.7c0,0.2,0.1,0.4,0.1,0.6c0.1,0.4,0.2,0.8,0.2,1.1
		c0,0.2,0.1,0.4,0.2,0.7c0.1,0.3,0.2,0.7,0.2,1c0.1,0.2,0.1,0.5,0.2,0.7c0.1,0.3,0.2,0.7,0.3,1c0.1,0.2,0.1,0.5,0.2,0.7
		c0.1,0.3,0.2,0.7,0.3,1c0.1,0.2,0.1,0.4,0.2,0.6c0.1,0.3,0.2,0.7,0.3,1c0.1,0.2,0.1,0.4,0.2,0.6c0.2,0.5,0.3,0.9,0.5,1.4
		c0,0.1,0.1,0.2,0.1,0.2c0.2,0.5,0.4,1,0.6,1.6c0.1,0.2,0.1,0.4,0.2,0.5c0.1,0.3,0.3,0.7,0.4,1c0.1,0.2,0.2,0.4,0.3,0.6
		c0.1,0.3,0.3,0.6,0.4,0.9c0.1,0.2,0.2,0.4,0.3,0.6c0.1,0.3,0.3,0.6,0.4,0.9c0.1,0.2,0.2,0.4,0.3,0.6c0.1,0.3,0.3,0.6,0.4,0.9
		c0.1,0.2,0.2,0.4,0.3,0.6c0.2,0.3,0.3,0.6,0.5,0.9c0.1,0.2,0.2,0.4,0.3,0.6c0.2,0.4,0.4,0.7,0.6,1.1c0.1,0.1,0.1,0.2,0.2,0.3
		c0.3,0.5,0.5,0.9,0.8,1.4c0.1,0.2,0.2,0.4,0.3,0.5c0.2,0.3,0.4,0.6,0.6,0.9c0.1,0.2,0.3,0.4,0.4,0.6c0.2,0.3,0.3,0.5,0.5,0.8
		c0.1,0.2,0.3,0.4,0.4,0.6c0.2,0.3,0.3,0.5,0.5,0.8c0.1,0.2,0.3,0.4,0.4,0.6c0.2,0.2,0.4,0.5,0.5,0.7c0.1,0.2,0.3,0.4,0.4,0.6
		c0.2,0.3,0.4,0.5,0.6,0.8c0.1,0.2,0.3,0.4,0.4,0.6c0.2,0.3,0.5,0.6,0.7,0.9c0.1,0.1,0.2,0.3,0.4,0.4c0.3,0.4,0.7,0.8,1,1.2
		c0.2,0.2,0.3,0.3,0.5,0.5c0.2,0.2,0.4,0.5,0.6,0.7c0.2,0.2,0.3,0.4,0.5,0.6c0.2,0.2,0.4,0.4,0.6,0.7c0.2,0.2,0.4,0.4,0.5,0.6
		c0.2,0.2,0.4,0.4,0.6,0.6c0.2,0.2,0.4,0.4,0.6,0.6c0.2,0.2,0.4,0.4,0.6,0.6c0.2,0.2,0.4,0.4,0.6,0.6c0.2,0.2,0.4,0.4,0.6,0.6
		c0.2,0.2,0.4,0.4,0.6,0.5c0.2,0.2,0.5,0.4,0.7,0.6c0.2,0.2,0.4,0.4,0.7,0.6c0.4,0.3,0.7,0.6,1.1,0.9c0.2,0.2,0.4,0.3,0.6,0.5
		c0.2,0.2,0.5,0.4,0.7,0.5c0.2,0.2,0.4,0.3,0.7,0.5c0.2,0.2,0.4,0.3,0.7,0.5c0.2,0.2,0.4,0.3,0.7,0.5c0.2,0.2,0.4,0.3,0.7,0.5
		c0.2,0.2,0.5,0.3,0.7,0.5c0.2,0.2,0.4,0.3,0.7,0.5c0.2,0.2,0.5,0.3,0.7,0.5c0.2,0.2,0.5,0.3,0.7,0.4c0.2,0.2,0.5,0.3,0.7,0.5
		c0.2,0.1,0.5,0.3,0.7,0.4c0.4,0.2,0.8,0.5,1.2,0.7c0.3,0.2,0.6,0.4,0.9,0.5c0.2,0.1,0.5,0.3,0.7,0.4c0.2,0.1,0.5,0.3,0.7,0.4
		c0.3,0.1,0.5,0.3,0.8,0.4c0.2,0.1,0.5,0.2,0.7,0.4c0.3,0.1,0.5,0.3,0.8,0.4c0.2,0.1,0.5,0.2,0.7,0.3c0.3,0.1,0.5,0.3,0.8,0.4
		c0.2,0.1,0.5,0.2,0.7,0.3c0.3,0.1,0.5,0.2,0.8,0.4c0.2,0.1,0.5,0.2,0.7,0.3c0.3,0.1,0.5,0.2,0.8,0.4c0.3,0.1,0.5,0.2,0.8,0.3
		c0.6,0.2,1.2,0.5,1.7,0.7c0.2,0.1,0.3,0.1,0.5,0.2c0.3,0.1,0.6,0.2,0.9,0.3c0.2,0.1,0.5,0.2,0.7,0.3c0.3,0.1,0.6,0.2,0.9,0.3
		c0.2,0.1,0.5,0.2,0.7,0.2c0.3,0.1,0.6,0.2,0.9,0.3c0.2,0.1,0.5,0.2,0.8,0.2c0.3,0.1,0.6,0.2,0.9,0.2c0.3,0.1,0.5,0.1,0.8,0.2
		c0.3,0.1,0.6,0.2,0.9,0.2c0.3,0.1,0.5,0.1,0.8,0.2c0.3,0.1,0.6,0.1,0.9,0.2c0.3,0.1,0.5,0.1,0.8,0.2c0.3,0.1,0.6,0.1,0.9,0.2
		c0.3-0.1,0.6-0.1,0.9-0.2c-0.3,0.1-0.6,0.1-0.9,0.2c4.7,1,9.6,1.5,14.7,1.5c40.5,0,73.3-32.8,73.3-73.3c0-40.5-32.8-73.3-73.3-73.3
		c-5,0-9.9,0.5-14.7,1.5C121.2,8.3,146.4,37.8,146.4,73.3z"/>
</g>
</svg>
