<?xml version="1.0" encoding="UTF-8" standalone="no"?>
<!-- Generator: Adobe Illustrator 23.0.3, SVG Export Plug-In . SVG Version: 6.00 Build 0)  -->

<svg
   version="1.1"
   id="Layer_1"
   x="0px"
   y="0px"
   viewBox="0 0 175.5 146.69999"
   xml:space="preserve"
   sodipodi:docname="c2f917a04e1a91b6924a22cbe0f4b905.svg"
   width="175.5"
   height="146.7"
   xmlns:inkscape="http://www.inkscape.org/namespaces/inkscape"
   xmlns:sodipodi="http://sodipodi.sourceforge.net/DTD/sodipodi-0.dtd"
   xmlns="http://www.w3.org/2000/svg"
   xmlns:svg="http://www.w3.org/2000/svg"><defs
   id="defs121" /><sodipodi:namedview
   id="namedview119"
   pagecolor="#ffffff"
   bordercolor="#666666"
   borderopacity="1.0"
   inkscape:pageshadow="2"
   inkscape:pageopacity="0.0"
   inkscape:pagecheckerboard="0" />
<style
   type="text/css"
   id="style2">
	.st0{fill:#28E6D6;}
	.st1{filter:url(#Adobe_OpacityMaskFilter);}
	.st2{fill-rule:evenodd;clip-rule:evenodd;fill:#FFFFFF;}
	.st3{mask:url(#mask-4_2_);fill-rule:evenodd;clip-rule:evenodd;fill:url(#Fill-4_1_);}
</style>
<title
   id="title4">logo_vectorial</title>
<desc
   id="desc6">Created with Sketch.</desc>
<g
   id="Clip-2"
   transform="translate(-0.1)">
</g>
<g
   id="Clip-5"
   transform="translate(-0.1)">
</g>
<g
   id="Clip-8"
   transform="translate(-0.1)">
</g>
<g
   id="g116"
   transform="translate(-0.1)">
	<g
   id="g99">
		<path
   class="st0"
   d="m 38.1,108.4 c -0.1,-0.2 -0.2,-0.4 -0.3,-0.6 -0.1,-0.1 -0.2,-0.3 -0.2,-0.4 l -11.3,1.1 -2.8,18.5 c 0.6,0.6 1.2,1.1 1.8,1.6 l 2.7,-18.3 10.5,-1 c -0.1,-0.3 -0.3,-0.6 -0.4,-0.9 z"
   id="path11" />
		<path
   class="st0"
   d="m 41.5,114 c -0.2,-0.3 -0.3,-0.5 -0.5,-0.8 -0.1,-0.2 -0.3,-0.4 -0.4,-0.6 0,0 -0.1,-0.1 -0.1,-0.1 l -8.9,2.2 -0.1,18.8 c 0.7,0.5 1.4,0.9 2.1,1.4 l 0.1,-18.5 8.1,-2 c -0.2,-0.2 -0.2,-0.3 -0.3,-0.4 z"
   id="path13" />
		<path
   class="st0"
   d="m 49.6,124.1 c -0.2,-0.2 -0.3,-0.3 -0.4,-0.5 -0.2,-0.2 -0.4,-0.4 -0.6,-0.7 -0.1,-0.1 -0.3,-0.3 -0.4,-0.4 l -3.6,2 5.1,18.1 c 0.8,0.3 1.6,0.5 2.4,0.8 l -5,-17.9 z"
   id="path15" />
		<path
   class="st0"
   d="m 45.4,119.3 c -0.2,-0.2 -0.3,-0.4 -0.5,-0.6 -0.1,-0.2 -0.3,-0.4 -0.4,-0.6 -0.1,-0.2 -0.3,-0.4 -0.4,-0.5 l -6.3,2.5 2.5,18.6 c 0.7,0.4 1.5,0.7 2.2,1.1 L 40,121.4 Z"
   id="path17" />
		<path
   class="st0"
   d="m 35.8,103.8 c -0.1,-0.2 -0.2,-0.4 -0.3,-0.6 -0.1,-0.3 -0.3,-0.6 -0.4,-0.9 0,-0.1 0,-0.1 -0.1,-0.2 l -13.2,-0.5 -5.3,18 c 0.5,0.6 1.1,1.3 1.6,1.9 l 5.2,-17.8 12.6,0.5 c 0,-0.1 0,-0.2 -0.1,-0.4 z"
   id="path19" />
		<path
   class="st0"
   d="m 29.8,82.8 c 0,-0.2 0,-0.4 -0.1,-0.6 0,-0.4 -0.1,-0.7 -0.1,-1.1 0,-0.2 0,-0.5 -0.1,-0.7 0,-0.1 0,-0.2 0,-0.3 L 14.7,69.9 0.7,82.4 c 0.1,0.8 0.2,1.7 0.3,2.5 L 14.9,72.6 Z"
   id="path21" />
		<path
   class="st0"
   d="m 30.7,88.3 c 0,-0.1 -0.1,-0.2 -0.1,-0.4 -0.1,-0.6 -0.2,-1.1 -0.3,-1.7 0,0 0,-0.1 0,-0.1 0,-0.1 0,-0.3 -0.1,-0.4 L 14.8,78.1 2.6,92.5 c 0.2,0.8 0.4,1.6 0.7,2.4 l 12,-14.1 z"
   id="path23" />
		<path
   class="st0"
   d="m 33.8,99 c -0.1,-0.2 -0.1,-0.3 -0.2,-0.5 0,-0.1 -0.1,-0.2 -0.1,-0.2 -0.2,-0.5 -0.3,-0.9 -0.5,-1.4 0,-0.1 0,-0.1 0,-0.2 L 18.4,94 10.7,111.1 c 0.4,0.7 0.9,1.4 1.3,2.1 l 7.6,-16.9 z"
   id="path25" />
		<path
   class="st0"
   d="m 29.2,76.9 c 0,0 0,0 0,0 0,-0.5 0,-0.9 -0.1,-1.3 0,-0.2 0,-0.4 0,-0.6 0,-0.3 0,-0.7 0,-1 L 15.7,61.8 0.1,72.2 c 0,0.4 0,0.7 0,1.1 0,0.5 0,0.9 0,1.4 L 15.5,64.4 Z"
   id="path27" />
		<path
   class="st0"
   d="m 32,93.7 c 0,0 0,0 0,0 -0.1,-0.3 -0.2,-0.5 -0.2,-0.8 -0.1,-0.3 -0.2,-0.7 -0.3,-1 -0.1,-0.2 -0.1,-0.4 -0.2,-0.7 L 16,86.2 6,102.1 c 0.3,0.8 0.7,1.5 1,2.3 l 9.9,-15.7 z"
   id="path29" />
		<path
   class="st0"
   d="m 54,128.3 c -0.2,-0.2 -0.5,-0.4 -0.7,-0.6 -0.1,-0.1 -0.2,-0.2 -0.3,-0.3 l -0.9,0.7 7.5,17.2 c 0.8,0.2 1.6,0.3 2.4,0.4 l -7.4,-16.9 c -0.2,-0.1 -0.4,-0.3 -0.6,-0.5 z"
   id="path31" />
		<path
   class="st0"
   d="m 65.8,136.8 c -0.3,-0.2 -0.6,-0.4 -0.9,-0.5 -0.4,-0.2 -0.8,-0.5 -1.2,-0.7 -0.2,-0.1 -0.5,-0.3 -0.7,-0.4 -0.2,-0.1 -0.4,-0.3 -0.6,-0.4 l 7.2,11.8 c 0.8,0 1.6,0 2.5,0.1 l -5.8,-9.5 C 66.2,137 66,136.9 65.8,136.8 Z"
   id="path33" />
		<path
   class="st0"
   d="m 111.1,95.9 c -0.5,0.8 -1,1.7 -1.6,2.5 l 3.6,17.6 c 1.5,-0.4 3,-0.8 4.5,-1.4 l -2.7,-0.1 z"
   id="path35" />
		<path
   class="st0"
   d="m 105.6,103.1 0.9,14 c 0.7,-0.1 1.4,-0.1 2.1,-0.2 l -1,-16 c -0.7,0.8 -1.3,1.5 -2,2.2 z"
   id="path37" />
		<path
   class="st0"
   d="m 117,78.6 c -0.1,1 -0.3,2 -0.5,2.9 l 10.8,15 15.6,-6.2 c 0.4,-0.9 0.7,-1.7 1,-2.6 L 128.1,94 Z"
   id="path39" />
		<path
   class="st0"
   d="m 115.8,84.6 c -0.3,1 -0.5,1.9 -0.9,2.8 l 8.6,16.4 13.3,-3.2 c 0.7,-0.8 1.3,-1.7 1.9,-2.6 l -14.1,3.4 z"
   id="path41" />
		<path
   class="st0"
   d="m 113.8,90.4 c -0.4,0.9 -0.8,1.8 -1.2,2.7 l 6.2,17.4 8.3,-0.8 c 1.1,-0.8 2.2,-1.6 3.2,-2.4 l -10.1,1 z"
   id="path43" />
		<path
   class="st0"
   d="m 79.6,142.9 c -0.3,-0.1 -0.6,-0.2 -0.9,-0.3 -0.2,-0.1 -0.5,-0.2 -0.7,-0.3 -0.3,-0.1 -0.6,-0.2 -0.9,-0.3 -0.2,-0.1 -0.3,-0.1 -0.5,-0.2 -0.1,-0.1 -0.3,-0.1 -0.4,-0.2 l 3.8,4.6 c 0.8,-0.1 1.6,-0.2 2.5,-0.3 L 80.1,143 c -0.3,0 -0.4,0 -0.5,-0.1 z"
   id="path45" />
		<path
   class="st0"
   d="m 100.4,117.2 c 0.7,0 1.4,0.1 2.1,0.1 l 0.9,-11.9 c -0.7,0.7 -1.5,1.3 -2.2,2 z"
   id="path47" />
		<path
   class="st0"
   d="m 90.1,115.4 c 0.7,0.2 1.3,0.4 2,0.5 l 1.3,-3.6 c -0.9,0.4 -1.8,0.9 -2.7,1.3 z"
   id="path49" />
		<path
   class="st0"
   d="m 94.9,116.6 c 0.7,0.1 1.4,0.2 2,0.3 l 1.7,-7.7 c -0.8,0.6 -1.6,1.1 -2.5,1.6 z"
   id="path51" />
		<path
   class="st0"
   d="m 45.6,39 c 0.8,-0.6 1.5,-1.2 2.3,-1.8 L 50.6,19.1 33.2,12 c -0.7,0.5 -1.4,0.9 -2,1.4 l 17.1,7 z"
   id="path53" />
		<path
   class="st0"
   d="m 119.3,16.4 c -0.6,-0.5 -1.3,-1 -2,-1.5 l -1.4,18.3 -18.7,3.2 c 0.8,0.5 1.6,1.1 2.4,1.7 L 117.8,35 Z"
   id="path55" />
		<path
   class="st0"
   d="m 110.9,10.5 c -0.7,-0.4 -1.4,-0.8 -2.2,-1.2 l 1.2,18.4 -18.1,5.8 c 0.9,0.4 1.8,0.9 2.6,1.3 L 112,29.2 Z"
   id="path57" />
		<path
   class="st0"
   d="m 116.7,66.3 c 0.2,1 0.3,1.9 0.4,2.9 l 14.5,11.5 14.6,-11.3 c 0,-0.8 -0.1,-1.7 -0.2,-2.5 l -14.4,11.2 z"
   id="path59" />
		<path
   class="st0"
   d="M 101.8,5.9 C 101,5.6 100.3,5.3 99.5,5 l 3.7,18.1 -17.1,8.2 c 0.9,0.3 1.9,0.6 2.8,1 l 16.7,-8 z"
   id="path61" />
		<path
   class="st0"
   d="m 115.4,60.4 c 0.3,0.9 0.5,1.9 0.8,2.8 l 16,9.4 12.8,-13.3 c -0.2,-0.8 -0.3,-1.6 -0.5,-2.4 L 131.7,70 Z"
   id="path63" />
		<path
   class="st0"
   d="m 117.3,72.4 c 0,0.3 0,0.6 0,0.9 0,0.7 0,1.4 -0.1,2.1 l 12.8,13.4 15.9,-9 c 0.1,-0.8 0.2,-1.7 0.3,-2.5 l -15.8,9 z"
   id="path65" />
		<path
   class="st0"
   d="M 92.1,2.5 C 91.3,2.3 90.5,2.1 89.7,1.9 l 6.2,17.4 -15.8,10.5 c 1,0.2 1.9,0.3 2.9,0.6 L 98.4,20.1 Z"
   id="path67" />
		<path
   class="st0"
   d="m 113.1,54.6 c 0.4,0.9 0.8,1.8 1.2,2.7 l 17.1,7 11,-14.9 c -0.3,-0.8 -0.6,-1.6 -0.8,-2.3 l -10.8,14.7 z"
   id="path69" />
		<path
   class="st0"
   d="m 110.1,49.3 c 0.5,0.8 1.1,1.7 1.5,2.5 l 17.9,4.6 8.8,-16.3 c -0.4,-0.7 -0.8,-1.5 -1.2,-2.2 L 128.6,54 Z"
   id="path71" />
		<path
   class="st0"
   d="m 106.4,44.4 c 0.6,0.7 1.3,1.5 1.9,2.3 l 18.4,2 6.4,-17.4 c -0.5,-0.7 -1,-1.3 -1.5,-2 l -6.4,17.2 z"
   id="path73" />
		<path
   class="st0"
   d="m 126.7,23.4 c -0.6,-0.6 -1.1,-1.2 -1.7,-1.8 l -3.9,17.9 -19,0.5 c 0.7,0.6 1.5,1.3 2.2,2 l 18.5,-0.5 z"
   id="path75" />
		<path
   class="st0"
   d="m 34,53.1 c 0.5,-0.9 0.9,-1.7 1.4,-2.6 L 30.6,33 11.8,33.5 c -0.5,0.7 -0.9,1.4 -1.3,2.1 L 29,35.1 Z"
   id="path77" />
		<path
   class="st0"
   d="m 37.2,47.9 c 0.6,-0.8 1.2,-1.6 1.8,-2.3 L 36.6,27.5 18,25.4 c -0.5,0.6 -1.1,1.3 -1.6,1.9 l 18.4,2 z"
   id="path79" />
		<path
   class="st0"
   d="m 41.1,43.1 c 0.7,-0.7 1.4,-1.4 2.1,-2.1 L 43.3,22.7 25.1,18.1 c -0.6,0.5 -1.2,1.1 -1.8,1.7 l 17.9,4.6 z"
   id="path81" />
		<path
   class="st0"
   d="m 30,64.7 c 0.2,-1 0.4,-1.9 0.7,-2.9 L 21.2,46.3 3.2,52.1 C 3,52.9 2.7,53.7 2.5,54.5 l 17.7,-5.6 z"
   id="path83" />
		<path
   class="st0"
   d="m 31.6,58.8 c 0.3,-0.9 0.7,-1.8 1.1,-2.7 L 25.4,39.4 6.9,42.5 c -0.3,0.8 -0.7,1.5 -1,2.3 l 18.3,-3.1 z"
   id="path85" />
		<path
   class="st0"
   d="m 50.7,35.5 c 0.8,-0.5 1.7,-1 2.6,-1.4 L 58.5,16.5 42.2,7 C 41.5,7.4 40.7,7.7 40,8.1 l 16,9.4 z"
   id="path87" />
		<path
   class="st0"
   d="m 67.9,29.6 c 1,-0.1 1.9,-0.2 2.9,-0.3 L 82.8,15.2 71.9,0 c -0.8,0 -1.7,0 -2.5,0.1 l 10.8,15.1 z"
   id="path89" />
		<path
   class="st0"
   d="m 61.9,30.8 c 0.9,-0.2 1.9,-0.5 2.9,-0.6 L 74.7,14.6 61.7,1 C 60.9,1.1 60.1,1.3 59.3,1.4 L 72,14.8 Z"
   id="path91" />
		<path
   class="st0"
   d="m 29.2,70.8 c 0.1,-1 0.1,-2 0.3,-2.9 L 17.9,53.9 0.9,62 c -0.1,0.8 -0.2,1.6 -0.3,2.4 l 16.7,-8 z"
   id="path93" />
		<path
   class="st0"
   d="M 76.9,29.5 90.7,17.2 82.1,0.5 C 81.3,0.4 80.5,0.3 79.6,0.2 L 88.2,16.6 74,29.3 c 0,0 0.1,0 0.1,0 0.8,0 1.7,0.1 2.5,0.1 0.1,0.1 0.2,0.1 0.3,0.1 z"
   id="path95" />
		<path
   class="st0"
   d="m 56.1,32.7 c 0.9,-0.4 1.8,-0.7 2.7,-1 L 66.4,14.9 51.7,3.3 c -0.8,0.2 -1.6,0.5 -2.3,0.8 l 14.5,11.5 z"
   id="path97" />
	</g>
	<defs
   id="defs104">
		<filter
   id="Adobe_OpacityMaskFilter"
   filterUnits="userSpaceOnUse"
   x="29.1"
   y="0"
   width="146.5"
   height="146.60001">
			<feColorMatrix
   type="matrix"
   values="1 0 0 0 0  0 1 0 0 0  0 0 1 0 0  0 0 0 1 0"
   id="feColorMatrix101" />
		</filter>
	</defs>
	<mask
   maskUnits="userSpaceOnUse"
   x="29.1"
   y="0"
   width="146.5"
   height="146.6"
   id="mask-4_2_">
		<g
   class="st1"
   id="g107">
			<path
   id="path-3_2_"
   class="st2"
   d="m 87.8,1.5 c 33.4,6.8 58.6,36.4 58.6,71.8 v 0 c 0,24.3 -19.7,44 -44,44 v 0 c -0.4,0 -0.7,0 -1.1,0 v 0 c -0.1,0 -0.3,0 -0.4,0 v 0 c -0.2,0 -0.4,0 -0.6,0 v 0 c -0.2,0 -0.3,0 -0.5,0 v 0 c -0.2,0 -0.3,0 -0.5,0 v 0 c -0.2,0 -0.4,0 -0.6,0 v 0 c -0.1,0 -0.3,0 -0.4,0 v 0 c -0.2,0 -0.5,0 -0.7,-0.1 v 0 c 0,0 -0.1,0 -0.1,0 v 0 C 75.5,114.8 58.4,96.1 58.4,73.5 v 0 C 58.4,54.4 70.6,38.1 87.7,32 v 0 C 83.1,30.4 78.2,29.5 73,29.5 v 0 c -24.3,0 -44,19.7 -44,44 v 0 c 0,0.6 0,1.2 0,1.8 v 0 c 0,0.2 0,0.4 0,0.6 v 0 c 0,0.4 0,0.8 0,1.2 v 0 c 0,0.2 0,0.5 0,0.7 v 0 c 0,0.4 0,0.7 0.1,1.1 v 0 c 0,0.2 0,0.5 0.1,0.7 v 0 c 0,0.4 0.1,0.7 0.1,1.1 v 0 c 0,0.2 0,0.5 0.1,0.7 v 0 c 0,0.4 0.1,0.7 0.1,1.1 v 0 c 0,0.2 0.1,0.5 0.1,0.7 v 0 c 0.1,0.4 0.1,0.8 0.2,1.1 v 0 c 0,0.2 0.1,0.4 0.1,0.6 v 0 c 0.1,0.5 0.2,1.1 0.3,1.6 v 0 c 0,0 0,0.1 0,0.1 v 0 c 0.1,0.6 0.2,1.1 0.3,1.7 v 0 c 0,0.2 0.1,0.4 0.1,0.6 v 0 c 0.1,0.4 0.2,0.8 0.2,1.1 v 0 c 0,0.2 0.1,0.4 0.2,0.7 v 0 c 0.1,0.3 0.2,0.7 0.2,1 v 0 c 0.1,0.2 0.1,0.5 0.2,0.7 v 0 c 0.1,0.3 0.2,0.7 0.3,1 v 0 c 0.1,0.2 0.1,0.5 0.2,0.7 v 0 c 0.1,0.3 0.2,0.7 0.3,1 v 0 c 0.1,0.2 0.1,0.4 0.2,0.6 v 0 c 0.1,0.3 0.2,0.7 0.3,1 v 0 c 0.1,0.2 0.1,0.4 0.2,0.6 v 0 c 0.2,0.5 0.3,0.9 0.5,1.4 v 0 c 0,0.1 0.1,0.2 0.1,0.2 v 0 c 0.2,0.5 0.4,1 0.6,1.6 v 0 c 0.1,0.2 0.1,0.4 0.2,0.5 v 0 c 0.1,0.3 0.3,0.7 0.4,1 v 0 c 0.1,0.2 0.2,0.4 0.3,0.6 v 0 c 0.1,0.3 0.3,0.6 0.4,0.9 v 0 c 0.1,0.2 0.2,0.4 0.3,0.6 v 0 c 0.1,0.3 0.3,0.6 0.4,0.9 v 0 c 0.1,0.2 0.2,0.4 0.3,0.6 v 0 c 0.1,0.3 0.3,0.6 0.4,0.9 v 0 c 0.1,0.2 0.2,0.4 0.3,0.6 v 0 c 0.2,0.3 0.3,0.6 0.5,0.9 v 0 c 0.1,0.2 0.2,0.4 0.3,0.6 v 0 c 0.2,0.4 0.4,0.7 0.6,1.1 v 0 c 0.1,0.1 0.1,0.2 0.2,0.3 v 0 c 0.3,0.5 0.5,0.9 0.8,1.4 v 0 c 0.1,0.2 0.2,0.4 0.3,0.5 v 0 c 0.2,0.3 0.4,0.6 0.6,0.9 v 0 c 0.1,0.2 0.3,0.4 0.4,0.6 v 0 c 0.2,0.3 0.3,0.5 0.5,0.8 v 0 c 0.1,0.2 0.3,0.4 0.4,0.6 v 0 c 0.2,0.3 0.3,0.5 0.5,0.8 v 0 c 0.1,0.2 0.3,0.4 0.4,0.6 v 0 c 0.2,0.2 0.4,0.5 0.5,0.7 v 0 c 0.1,0.2 0.3,0.4 0.4,0.6 v 0 c 0.2,0.3 0.4,0.5 0.6,0.8 v 0 c 0.1,0.2 0.3,0.4 0.4,0.6 v 0 c 0.2,0.3 0.5,0.6 0.7,0.9 v 0 c 0.1,0.1 0.2,0.3 0.4,0.4 v 0 c 0.3,0.4 0.7,0.8 1,1.2 v 0 c 0.2,0.2 0.3,0.3 0.5,0.5 v 0 c 0.2,0.2 0.4,0.5 0.6,0.7 v 0 c 0.2,0.2 0.3,0.4 0.5,0.6 v 0 c 0.2,0.2 0.4,0.4 0.6,0.7 v 0 c 0.2,0.2 0.4,0.4 0.5,0.6 v 0 c 0.2,0.2 0.4,0.4 0.6,0.6 v 0 c 0.2,0.2 0.4,0.4 0.6,0.6 v 0 c 0.2,0.2 0.4,0.4 0.6,0.6 v 0 c 0.2,0.2 0.4,0.4 0.6,0.6 v 0 c 0.2,0.2 0.4,0.4 0.6,0.6 v 0 c 0.2,0.2 0.4,0.4 0.6,0.5 v 0 c 0.2,0.2 0.5,0.4 0.7,0.6 v 0 c 0.2,0.2 0.4,0.4 0.7,0.6 v 0 c 0.4,0.3 0.7,0.6 1.1,0.9 v 0 c 0.2,0.2 0.4,0.3 0.6,0.5 v 0 c 0.2,0.2 0.5,0.4 0.7,0.5 v 0 c 0.2,0.2 0.4,0.3 0.7,0.5 v 0 c 0.2,0.2 0.4,0.3 0.7,0.5 v 0 c 0.2,0.2 0.4,0.3 0.7,0.5 v 0 c 0.2,0.2 0.4,0.3 0.7,0.5 v 0 c 0.2,0.2 0.5,0.3 0.7,0.5 v 0 c 0.2,0.2 0.4,0.3 0.7,0.5 v 0 c 0.2,0.2 0.5,0.3 0.7,0.5 v 0 c 0.2,0.2 0.5,0.3 0.7,0.4 v 0 c 0.2,0.2 0.5,0.3 0.7,0.5 v 0 c 0.2,0.1 0.5,0.3 0.7,0.4 v 0 c 0.4,0.2 0.8,0.5 1.2,0.7 v 0 c 0.3,0.2 0.6,0.4 0.9,0.5 v 0 c 0.2,0.1 0.5,0.3 0.7,0.4 v 0 c 0.2,0.1 0.5,0.3 0.7,0.4 v 0 c 0.3,0.1 0.5,0.3 0.8,0.4 v 0 c 0.2,0.1 0.5,0.2 0.7,0.4 v 0 c 0.3,0.1 0.5,0.3 0.8,0.4 v 0 c 0.2,0.1 0.5,0.2 0.7,0.3 v 0 c 0.3,0.1 0.5,0.3 0.8,0.4 v 0 c 0.2,0.1 0.5,0.2 0.7,0.3 v 0 c 0.3,0.1 0.5,0.2 0.8,0.4 v 0 c 0.2,0.1 0.5,0.2 0.7,0.3 v 0 c 0.3,0.1 0.5,0.2 0.8,0.4 v 0 c 0.3,0.1 0.5,0.2 0.8,0.3 v 0 c 0.6,0.2 1.2,0.5 1.7,0.7 v 0 c 0.2,0.1 0.3,0.1 0.5,0.2 v 0 c 0.3,0.1 0.6,0.2 0.9,0.3 v 0 c 0.2,0.1 0.5,0.2 0.7,0.3 v 0 c 0.3,0.1 0.6,0.2 0.9,0.3 v 0 c 0.2,0.1 0.5,0.2 0.7,0.2 v 0 c 0.3,0.1 0.6,0.2 0.9,0.3 v 0 c 0.2,0.1 0.5,0.2 0.8,0.2 v 0 c 0.3,0.1 0.6,0.2 0.9,0.2 v 0 c 0.3,0.1 0.5,0.1 0.8,0.2 v 0 c 0.3,0.1 0.6,0.2 0.9,0.2 v 0 c 0.3,0.1 0.5,0.1 0.8,0.2 v 0 c 0.3,0.1 0.6,0.1 0.9,0.2 v 0 c 0.3,0.1 0.5,0.1 0.8,0.2 v 0 c 0.3,0.1 0.6,0.1 0.9,0.2 v 0 c 0.3,-0.1 0.6,-0.1 0.9,-0.2 v 0 c -0.3,0.1 -0.6,0.1 -0.9,0.2 v 0 c 4.7,1 9.6,1.5 14.7,1.5 v 0 c 40.5,0 73.3,-32.8 73.3,-73.3 v 0 C 175.9,33.1 143.1,0.3 102.6,0.3 v 0 C 97.4,0 92.5,0.5 87.8,1.5" />
		</g>
	</mask>
	
		<linearGradient
   id="Fill-4_1_"
   gradientUnits="userSpaceOnUse"
   x1="-328.74619"
   y1="369.323"
   x2="-329.52051"
   y2="369.203"
   gradientTransform="matrix(146.5155,0,0,-146.58,48340.301,54197.605)">
		<stop
   offset="0"
   style="stop-color:#000078"
   id="stop110" />
		<stop
   offset="1"
   style="stop-color:#29E7D6"
   id="stop112" />
	</linearGradient>
	<path
   id="Fill-4"
   class="st3"
   d="m 146.4,73.3 c 0,24.3 -19.7,44 -44,44 -0.4,0 -0.7,0 -1.1,0 -0.1,0 -0.3,0 -0.4,0 -0.2,0 -0.4,0 -0.6,0 -0.2,0 -0.3,0 -0.5,0 -0.2,0 -0.3,0 -0.5,0 -0.2,0 -0.4,0 -0.6,0 -0.1,0 -0.3,0 -0.4,0 -0.2,0 -0.5,0 -0.7,-0.1 0,0 -0.1,0 -0.1,0 C 75.5,114.8 58.4,96.1 58.4,73.5 58.4,54.4 70.6,38.1 87.7,32 83.1,30.4 78.2,29.5 73,29.5 c -24.3,0 -44,19.7 -44,44 0,0.6 0,1.2 0,1.8 0,0.2 0,0.4 0,0.6 0,0.4 0,0.8 0,1.2 0,0.2 0,0.5 0,0.7 0,0.4 0,0.7 0.1,1.1 0,0.2 0,0.5 0.1,0.7 0,0.4 0.1,0.7 0.1,1.1 0,0.2 0,0.5 0.1,0.7 0,0.4 0.1,0.7 0.1,1.1 0,0.2 0.1,0.5 0.1,0.7 0.1,0.4 0.1,0.8 0.2,1.1 0,0.2 0.1,0.4 0.1,0.6 0.1,0.5 0.2,1.1 0.3,1.6 0,0 0,0.1 0,0.1 0.1,0.6 0.2,1.1 0.3,1.7 0,0.2 0.1,0.4 0.1,0.6 0.1,0.4 0.2,0.8 0.2,1.1 0,0.2 0.1,0.4 0.2,0.7 0.1,0.3 0.2,0.7 0.2,1 0.1,0.2 0.1,0.5 0.2,0.7 0.1,0.3 0.2,0.7 0.3,1 0.1,0.2 0.1,0.5 0.2,0.7 0.1,0.3 0.2,0.7 0.3,1 0.1,0.2 0.1,0.4 0.2,0.6 0.1,0.3 0.2,0.7 0.3,1 0.1,0.2 0.1,0.4 0.2,0.6 0.2,0.5 0.3,0.9 0.5,1.4 0,0.1 0.1,0.2 0.1,0.2 0.2,0.5 0.4,1 0.6,1.6 0.1,0.2 0.1,0.4 0.2,0.5 0.1,0.3 0.3,0.7 0.4,1 0.1,0.2 0.2,0.4 0.3,0.6 0.1,0.3 0.3,0.6 0.4,0.9 0.1,0.2 0.2,0.4 0.3,0.6 0.1,0.3 0.3,0.6 0.4,0.9 0.1,0.2 0.2,0.4 0.3,0.6 0.1,0.3 0.3,0.6 0.4,0.9 0.1,0.2 0.2,0.4 0.3,0.6 0.2,0.3 0.3,0.6 0.5,0.9 0.1,0.2 0.2,0.4 0.3,0.6 0.2,0.4 0.4,0.7 0.6,1.1 0.1,0.1 0.1,0.2 0.2,0.3 0.3,0.5 0.5,0.9 0.8,1.4 0.1,0.2 0.2,0.4 0.3,0.5 0.2,0.3 0.4,0.6 0.6,0.9 0.1,0.2 0.3,0.4 0.4,0.6 0.2,0.3 0.3,0.5 0.5,0.8 0.1,0.2 0.3,0.4 0.4,0.6 0.2,0.3 0.3,0.5 0.5,0.8 0.1,0.2 0.3,0.4 0.4,0.6 0.2,0.2 0.4,0.5 0.5,0.7 0.1,0.2 0.3,0.4 0.4,0.6 0.2,0.3 0.4,0.5 0.6,0.8 0.1,0.2 0.3,0.4 0.4,0.6 0.2,0.3 0.5,0.6 0.7,0.9 0.1,0.1 0.2,0.3 0.4,0.4 0.3,0.4 0.7,0.8 1,1.2 0.2,0.2 0.3,0.3 0.5,0.5 0.2,0.2 0.4,0.5 0.6,0.7 0.2,0.2 0.3,0.4 0.5,0.6 0.2,0.2 0.4,0.4 0.6,0.7 0.2,0.2 0.4,0.4 0.5,0.6 0.2,0.2 0.4,0.4 0.6,0.6 0.2,0.2 0.4,0.4 0.6,0.6 0.2,0.2 0.4,0.4 0.6,0.6 0.2,0.2 0.4,0.4 0.6,0.6 0.2,0.2 0.4,0.4 0.6,0.6 0.2,0.2 0.4,0.4 0.6,0.5 0.2,0.2 0.5,0.4 0.7,0.6 0.2,0.2 0.4,0.4 0.7,0.6 0.4,0.3 0.7,0.6 1.1,0.9 0.2,0.2 0.4,0.3 0.6,0.5 0.2,0.2 0.5,0.4 0.7,0.5 0.2,0.2 0.4,0.3 0.7,0.5 0.2,0.2 0.4,0.3 0.7,0.5 0.2,0.2 0.4,0.3 0.7,0.5 0.2,0.2 0.4,0.3 0.7,0.5 0.2,0.2 0.5,0.3 0.7,0.5 0.2,0.2 0.4,0.3 0.7,0.5 0.2,0.2 0.5,0.3 0.7,0.5 0.2,0.2 0.5,0.3 0.7,0.4 0.2,0.2 0.5,0.3 0.7,0.5 0.2,0.1 0.5,0.3 0.7,0.4 0.4,0.2 0.8,0.5 1.2,0.7 0.3,0.2 0.6,0.4 0.9,0.5 0.2,0.1 0.5,0.3 0.7,0.4 0.2,0.1 0.5,0.3 0.7,0.4 0.3,0.1 0.5,0.3 0.8,0.4 0.2,0.1 0.5,0.2 0.7,0.4 0.3,0.1 0.5,0.3 0.8,0.4 0.2,0.1 0.5,0.2 0.7,0.3 0.3,0.1 0.5,0.3 0.8,0.4 0.2,0.1 0.5,0.2 0.7,0.3 0.3,0.1 0.5,0.2 0.8,0.4 0.2,0.1 0.5,0.2 0.7,0.3 0.3,0.1 0.5,0.2 0.8,0.4 0.3,0.1 0.5,0.2 0.8,0.3 0.6,0.2 1.2,0.5 1.7,0.7 0.2,0.1 0.3,0.1 0.5,0.2 0.3,0.1 0.6,0.2 0.9,0.3 0.2,0.1 0.5,0.2 0.7,0.3 0.3,0.1 0.6,0.2 0.9,0.3 0.2,0.1 0.5,0.2 0.7,0.2 0.3,0.1 0.6,0.2 0.9,0.3 0.2,0.1 0.5,0.2 0.8,0.2 0.3,0.1 0.6,0.2 0.9,0.2 0.3,0.1 0.5,0.1 0.8,0.2 0.3,0.1 0.6,0.2 0.9,0.2 0.3,0.1 0.5,0.1 0.8,0.2 0.3,0.1 0.6,0.1 0.9,0.2 0.3,0.1 0.5,0.1 0.8,0.2 0.3,0.1 0.6,0.1 0.9,0.2 0.3,-0.1 0.6,-0.1 0.9,-0.2 -0.3,0.1 -0.6,0.1 -0.9,0.2 4.7,1 9.6,1.5 14.7,1.5 40.5,0 73.3,-32.8 73.3,-73.3 0,-40.5 -32.8,-73.3 -73.3,-73.3 -5,0 -9.9,0.5 -14.7,1.5 33.3,6.5 58.5,36 58.5,71.5 z"
   mask="url(#mask-4_2_)"
   style="fill:url(#Fill-4_1_)" />
</g>
</svg>
