<svg xmlns="http://www.w3.org/2000/svg" xmlns:xlink="http://www.w3.org/1999/xlink" version="1.1" id="Layer_1" x="0px" y="0px" viewBox="0 0 282.3 72.8" style="enable-background:new 0 0 282.3 72.8;" xml:space="preserve">
<style type="text/css">
	.st0{display:none;fill:#FFFFFF;}
</style>
<rect x="0.3" y="0.4" class="st0" width="281.8" height="72.2"/>
<path class="st1" d="M0.3,0.4v10.5h15.1v1.9H0.3V23h15.1v1.9H0.3v10.5h15.1v1.9H0.3V48h15.1v1.9H0.3v10.3h15.1v1.9H0.3v10.4H282V0.4  H0.3z M69,25.9H54.8c0.5-2,0.2-3.5-0.9-4.5c-1-1.1-2.7-1.6-5.1-1.6c-3.3,0-6.5,2.1-7.1,4.7c-0.8,3.8,3.5,5,7,6  c8.1,2.2,20.4,3,17.5,16.9c-2.3,10.8-14,15.9-25.9,15.9c-11.9,0-21.7-3.5-19-17.4h14.2c-1.1,4.8,1.9,7.5,7,7.5  c3.3,0,7.8-1.7,8.5-5.1c1.5-7-9.3-5.5-19.4-10.4c-4.7-2.3-6.3-7-5.1-12.5C29.7,13.1,41.1,9.8,51.8,9.8C62.4,9.8,72.4,13.6,69,25.9z   M112.5,41.3H89.6l-2.3,10.9h24.8l-2.1,9.9H71l10.9-51.2h37.6h1.4l-1.4,6.7l-0.7,3.2H94l-2.3,10.6h22.9L112.5,41.3z M148.4,62.1  l-9.1-39.3h-0.1l-8.3,39.3h-11.3h-1.4l1.4-6.8l9.5-44.5h19.9l9.1,38.2l0.2-0.1l8.1-38h9.9h2.8l-2.8,13.3l-8.1,38H148.4z M215,62.1  l-1.3-10h-8.2h-12.6l-5.5,10h-11.4h-2.8l2.8-4.7l28.3-46.6h1.1h16.2l9.3,51.2L215,62.1L215,62.1z M250.6,62.1h-14.2l10.9-51.2h14.2  L250.6,62.1z M282,62.1h-15.1v-1.9H282L282,62.1L282,62.1z M282,49.9h-15.1V48H282L282,49.9L282,49.9z M282,37.3h-15.1v-1.9H282  L282,37.3L282,37.3z M282,24.9h-15.1V23H282L282,24.9L282,24.9z M282,12.8h-15.1v-1.9H282L282,12.8L282,12.8z M210.1,20.9l-4.6,8.6  l-6.9,12.7h6.9h6.9l-2-21.3L210.1,20.9L210.1,20.9z"/>
</svg>
