<svg data-v-4876b97f="" height="228" viewBox="0 0 300 228"><path data-v-4876b97f="" d="M280.78 10.05c-2.652 2.381-3.116 2.766-8.398 6.984-2.863 2.285-8.057 7.302-9.771 9.437-.52.649-1.961 2.43-3.201 3.96-1.24 1.529-2.694 3.324-3.232 3.988-.537.663-.929 1.207-.87 1.207.058 0-.379.532-.97 1.183-.592.652-1.57 1.811-2.174 2.578-.603.766-1.706 2.124-2.45 3.018-2.249 2.7-7.13 8.65-12.514 15.256-.806.989-3.089 3.751-5.073 6.139-1.984 2.387-3.994 4.863-4.466 5.501-.472.639-1.243 1.567-1.714 2.063s-1.201 1.363-1.622 1.927c-.422.563-1.193 1.527-1.713 2.142-.521.614-1.934 2.284-3.139 3.71s-2.309 2.695-2.452 2.819-1.268 1.435-2.499 2.913c-1.23 1.478-2.719 3.254-3.307 3.946s-1.627 1.987-2.309 2.878-1.331 1.677-1.443 1.746c-.309.191-7.392 9.65-7.972 10.646-.281.482-.899 1.381-1.375 2-1.009 1.311-4.884 7.27-4.884 7.51 0 .09-.372.719-.826 1.399-.767 1.146-2.315 4.026-4.36 8.112-.466.93-1.081 2.35-1.368 3.156-.286.806-.646 1.669-.799 1.917-1.972 3.204-3.333 12.895-2.452 17.472 1.336 6.94 4.996 10.549 13.751 13.559 1.114.384 9.887.394 11.273.014.497-.136 1.511-.4 2.255-.588.744-.187 1.556-.435 1.804-.552.248-.116 1.111-.44 1.917-.721 2.496-.869 5.939-3.312 7.399-5.253 2.24-2.977 3.496-5.65 3.88-8.26.1-.682.302-2.001.447-2.932.146-.93.201-2.18.122-2.777l-.143-1.087 1.306 1.332c2.906 2.965 5.761 2.867 9.092-.311.735-.701 1.287-1.354 1.227-1.451s-.027-.211.073-.252c.42-.174 2.349-3.178 3.103-4.831.447-.981.9-1.936 1.005-2.122.621-1.096 2.001-4.097 2.233-4.857.365-1.192.854-2.439 1.537-3.92.591-1.282 1.466-3.559 1.956-5.09.158-.496.75-2.069 1.313-3.495.564-1.426 1.257-3.303 1.54-4.171s.896-2.492 1.363-3.608 1.108-2.79 1.424-3.72c.949-2.791 1.191-3.427 1.903-5.008.374-.832.984-2.456 1.355-3.608.635-1.973 1.132-3.313 1.611-4.349.451-.977 1.546-3.909 1.978-5.299.25-.806.855-2.43 1.344-3.608.49-1.178 1.251-3.213 1.692-4.523s1.116-3.074 1.5-3.921.947-2.312 1.25-3.256c.567-1.761.777-2.323 2.34-6.254.499-1.256 1.058-2.778 1.242-3.383.184-.604.785-2.214 1.337-3.578s1.285-3.444 1.63-4.623c.344-1.178.88-2.801 1.19-3.607.593-1.541 1.458-4.155 2.315-6.99.281-.93.763-2.351 1.071-3.157.795-2.078 1.843-5.448 1.848-5.941.002-.229.151-.737.332-1.127.615-1.333 3.054-8.607 3.054-9.11 0-.179.148-.646.328-1.037.373-.808.858-2.128 1.504-4.093.245-.744.596-1.584.781-1.866.185-.283.276-.612.201-.733-.074-.12-.028-.219.104-.219.338 0 .309-2.996-.032-3.337-.773-.773-1.663-.345-4.402 2.113m-6.157 14.416c-.791 2.751-1.171 3.911-1.805 5.523-.269.682-.8 2.305-1.179 3.607-.38 1.303-1.019 3.23-1.421 4.284-.402 1.055-1.163 3.338-1.692 5.074-.528 1.736-1.285 4.019-1.681 5.073-.397 1.054-1.148 3.185-1.669 4.735-.522 1.55-1.081 3.072-1.243 3.382-.343.658-.809 2.053-.782 2.343.01.11-.078.262-.195.338-.116.076-.525 1.051-.907 2.167-.777 2.269-1.355 3.794-2.009 5.299-.242.558-.725 1.877-1.073 2.931s-1.017 2.83-1.487 3.946c-.857 2.035-2.116 5.499-2.459 6.764-.101.372-.46 1.286-.799 2.03-.68 1.494-1.35 3.296-1.803 4.847-.163.559-.8 2.233-1.416 3.721s-1.344 3.416-1.618 4.284-.578 1.734-.676 1.923c-.373.727-2.005 4.893-2.337 5.969-.391 1.267-.944 2.738-1.78 4.735-.311.744-.8 2.063-1.086 2.931s-.975 2.695-1.532 4.059c-.556 1.364-1.335 3.41-1.731 4.546s-.951 2.557-1.234 3.157c-.282.599-.863 1.902-1.291 2.894-1.313 3.042-1.452 3.332-2.387 4.961-2.387 4.159-3.378 5.129-4.152 4.065-1.346-1.853-9.301-8.426-10.793-8.918-3.096-1.022-5.324 1.9-3.927 5.149.277.643.592 1.169.701 1.169s.175.076.148.169c-.064.216 1.201 2.698 2.27 4.454l.824 1.353-.028 2.593c-.083 7.71-5.109 12.504-14.177 13.522-10.848 1.218-16.92-2.737-17.646-11.493-.35-4.209 3.721-16.103 7.559-22.091.44-.686.963-1.601 1.163-2.035.343-.744 2.654-4.427 4.225-6.733.392-.576 1.194-1.757 1.782-2.625 1.021-1.507 7.078-9.573 9.456-12.592 1.337-1.697 5.927-7.163 9.593-11.421 1.441-1.675 3.499-4.11 4.572-5.412s2.457-2.976 3.076-3.72c2.84-3.419 5.793-7.024 9.768-11.928.894-1.104 2.039-2.474 2.544-3.044.505-.571 1.395-1.646 1.978-2.39s1.743-2.183 2.577-3.198c2.511-3.054 4.865-5.908 7.034-8.527 1.13-1.364 2.38-2.897 2.779-3.407.398-.509 1.582-1.981 2.632-3.269 2.971-3.647 4.739-5.831 6.199-7.655 1.206-1.506 2.468-2.956 4.534-5.209 1.569-1.711 5.041-4.792 5.209-4.624.022.023-.251 1.055-.608 2.294m-133.12 20.573c-.407.466-1.541 1.759-2.521 2.875-2.443 2.786-5.196 6.089-7.575 9.093-.46.58-1.347 1.663-1.972 2.407-5.28 6.28-9.407 11.842-11.283 15.205-.592 1.062-1.545 2.687-2.118 3.612-.573.924-1.042 1.753-1.042 1.841 0 .089-.472.956-1.049 1.927-2.227 3.75-4.875 9.859-5.603 12.928-.162.682-.401 1.544-.532 1.916-1.06 3.018-1.663 8.391-1.695 15.107-.031 6.386.456 10.441 1.773 14.769.17.558.379 1.522.465 2.142.205 1.479 1.112 5.451 1.699 7.441.256.868.572 1.984.702 2.48s.376 1.312.547 1.812.311 1.102.311 1.338c0 .586 1.092 5.634 1.486 6.868.175.549.318 1.31.318 1.692 0 .381.21 1.403.467 2.271.799 2.697.734 12.188-.099 14.626-1.016 2.973-2.283 5.332-3.796 7.072-2.668 3.066-3.8 4.457-4.728 5.81-.511.744-1.117 1.594-1.347 1.89-.36.463-.418.961-.418 3.561v3.023l1.067 1.141c1.818 1.944 6.392 3.755 11.007 4.358 1.724.225 1.707.181 1.057 2.716-.918 3.579.273 6.36 3.402 7.945 1.454.737 6.129 2.31 6.863 2.31 1.831 0 2.371.689 2.644 3.371.166 1.628.369 2.134.955 2.384.641.272 4.757.761 6.601.783.93.012 2.148.12 2.706.24.558.121 1.776.357 2.706.525 1.551.28 6.75 1.47 10.034 2.297 1.439.363 3.029.89 7.553 2.506 1.55.554 3.077 1.088 3.392 1.186s1.178.491 1.917.873c.738.382 2.155 1.035 3.147 1.451.992.417 2.507 1.183 3.368 1.703l1.564.945h7.995l1.428-1.486c2.056-2.14 4.622-6.251 5.385-8.626.106-.329.457-1.308.781-2.176 1.576-4.229 2.27-7.363 2.594-11.725.101-1.365.318-3.039.482-3.721.468-1.947.387-14.196-.109-16.573-.207-.992-.377-2.226-.377-2.742 0-1.194-.946-5.189-1.646-6.953-1.71-4.308-2.455-5.849-4.092-8.456-1.9-3.027-4.395-5.863-6.237-7.088l-1.533-1.019.441-1.28c.242-.704.44-1.525.44-1.824s.108-.745.24-.991.381-1.077.553-1.845c.172-.769.41-1.804.528-2.3 1.133-4.74 1.415-8.458 1.431-18.878.018-11.604-.058-12.28-2.267-20.13-1.075-3.818-1.485-5.102-2.34-7.328-1.884-4.9-2.721-6.92-3.457-8.343-.418-.806-.971-1.972-1.23-2.593-.259-.62-.659-1.482-.889-1.916s-1.018-1.956-1.751-3.382c-1.534-2.988-4.233-7.649-5.503-9.506-.48-.702-.873-1.34-.873-1.418s-.634-1.064-1.409-2.191-1.764-2.59-2.198-3.252c-.919-1.4-2.562-3.849-4.036-6.014-.571-.839-1.545-2.322-2.165-3.296s-1.457-2.215-1.859-2.759c-.403-.544-1.428-2.034-2.279-3.31s-1.786-2.595-2.078-2.931-.495-.645-.452-.688c.043-.042-.511-.976-1.232-2.077-1.778-2.716-2.922-3.151-4.259-1.623m3.582 10.874c1.197 1.796 2.281 3.329 2.408 3.408.128.079.205.183.171.231-.033.048.745 1.285 1.729 2.75.984 1.464 2.347 3.506 3.029 4.537.682 1.03 1.77 2.673 2.417 3.65s1.662 2.473 2.255 3.324 1.542 2.322 2.11 3.269c.568.948 1.405 2.279 1.861 2.958.455.679.827 1.31.827 1.402s.496 1.008 1.101 2.035c1.218 2.063 4.811 9.155 5.802 11.45.348.806.738 1.54.867 1.631s.163.167.075.169.151.688.531 1.526c.379.837.979 2.384 1.333 3.438.353 1.054.907 2.627 1.23 3.495.635 1.708 1.195 3.5 1.374 4.397.235 1.179 1.198 6.051 1.538 7.784.505 2.58.513 17.113.011 20.852-.646 4.808-1.482 9.802-1.812 10.823-.18.558-.327 1.182-.326 1.387 0 .205-.464 1.575-1.033 3.044-1.996 5.157-2.013 5.521-.307 6.76 1.312.953 2.202 1.132 3.222.648.955-.453.965-.448 2.885 1.577 2.145 2.262 4.82 6.822 5.819 9.921.28.868.686 2.085.904 2.706.695 1.982.947 3.108 1.158 5.186.114 1.116.318 2.841.454 3.833.466 3.408-.183 17.145-.893 18.898-.142.349-.258.951-.258 1.337s-.194 1.318-.432 2.071-.654 2.231-.925 3.286c-.951 3.709-3.136 7.927-5.291 10.218l-1.234 1.312-.963-.585c-1.763-1.071-9.51-4.815-10.98-5.307-.797-.266-2.111-.784-2.92-1.151s-1.704-.686-1.99-.71c-.285-.023-.518-.11-.518-.193 0-.17-.113-.206-3.495-1.1-1.364-.36-2.785-.76-3.157-.888-3.733-1.287-6.737-1.896-13.641-2.765-1.055-.132-2.627-.36-3.495-.506l-1.579-.265-.177-1.229c-.433-3.001-.701-3.375-2.754-3.831-2.894-.644-9.748-2.891-9.882-3.24-.064-.167.136-1.457.445-2.867 1.289-5.878.127-7.19-7.474-8.442-1.775-.292-4.744-1.009-5.242-1.265-1.2-.618-.483-3.036 1.591-5.366 5.811-6.533 7.67-10.045 8.343-15.761.483-4.106.21-11.172-.613-15.857-.513-2.921-.644-3.496-1.711-7.508-.712-2.674-1.086-4.228-1.357-5.637-.283-1.473-1.378-5.66-1.936-7.406-.391-1.225-.527-1.927-1.334-6.912-1.119-6.903-1.203-8.474-.782-14.63.464-6.806 1.324-11.239 2.824-14.569.167-.372.625-1.438 1.018-2.368s.856-2.02 1.03-2.423c.174-.402.306-.797.294-.876-.012-.08.08-.208.204-.285.124-.076.702-1.051 1.286-2.167.922-1.762 2.587-4.68 4.695-8.229 1.375-2.314 2.586-4.085 3.794-5.549.705-.854 2.152-2.669 3.217-4.033 1.065-1.365 2.315-2.932 2.778-3.483.463-.552 1.191-1.465 1.618-2.03.427-.564 1.312-1.624 1.966-2.354.655-.731 1.137-1.416 1.071-1.522-.066-.107-.035-.194.07-.194.104 0 .795-.728 1.535-1.617 2.095-2.517 3.092-3.589 3.276-3.52.093.035 1.149 1.532 2.345 3.327m-5.29 82.111c-8.208 1.346-12.869 6.748-12.908 14.964-.031 6.409 1.215 7.483 6.822 5.877 10.327-2.957 15.4-9.388 14.032-17.789-.514-3.155-2.55-3.937-7.946-3.052m3.935 4.648c.692 4.144-2.408 8.496-7.768 10.906-5.577 2.508-5.412 2.484-5.411.781.001-6.141 3.834-11.135 9.116-11.877.753-.106 1.723-.286 2.157-.401 1.53-.404 1.751-.336 1.906.591" stroke="currentColor" stroke-width="1.0" fill="currentColor" class="logo-marknav"></path></svg>
