<?xml version="1.0" encoding="UTF-8" standalone="no"?>
<svg
   width="657.83203"
   height="662"
   viewBox="1.786 1.783 75.746727 76.248"
   version="1.1"
   id="svg2527"
   sodipodi:docname="linkedin.svg"
   inkscape:version="1.1 (c4e8f9ed74, 2021-05-24)"
   xmlns:inkscape="http://www.inkscape.org/namespaces/inkscape"
   xmlns:sodipodi="http://sodipodi.sourceforge.net/DTD/sodipodi-0.dtd"
   xmlns="http://www.w3.org/2000/svg"
   xmlns:svg="http://www.w3.org/2000/svg">
  <defs
     id="defs2531" />
  <sodipodi:namedview
     id="namedview2529"
     pagecolor="#ffffff"
     bordercolor="#666666"
     borderopacity="1.0"
     inkscape:pageshadow="2"
     inkscape:pageopacity="0.0"
     inkscape:pagecheckerboard="0"
     showgrid="false"
     inkscape:zoom="0.4592"
     inkscape:cx="-733.88502"
     inkscape:cy="347.34321"
     inkscape:window-width="1366"
     inkscape:window-height="708"
     inkscape:window-x="0"
     inkscape:window-y="32"
     inkscape:window-maximized="1"
     inkscape:current-layer="svg2527" />
  <path
     id="path2519"
     style="stroke-width:0.999999"
     d="m 7.3457903,1.783 c -3.09201,0 -5.6001,2.446969 -5.6001,5.461969 v 65.326088 c 0,3.015001 2.50809,5.459945 5.6001,5.459945 H 71.91377 c 3.093,0 5.59986,-2.445069 5.59986,-5.461069 V 7.244969 c 0,-3.015 -2.50686,-5.461969 -5.59986,-5.461969 z M 19.06968,14.583082 c 3.914,0 6.32301,2.570003 6.39801,5.949002 0,3.304001 -2.48405,5.947878 -6.47405,5.947878 h -9e-4 -0.074 c -3.84099,0 -6.324,-2.643877 -6.324,-5.947878 0,-3.378999 2.55795,-5.949002 6.47496,-5.949002 z m 33.73597,15.789994 c 7.529,0 13.17396,4.920974 13.17396,15.495974 V 65.609972 H 54.5367 V 47.192925 c 0,-4.629 -1.65693,-7.786005 -5.79693,-7.786005 -3.162,0 -5.04506,2.12901 -5.87207,4.186009 -0.30199,0.734 -0.37702,1.764173 -0.37702,2.792173 v 19.22487 H 31.04775 c 3e-5,-0.0036 0.1499,-31.199258 9.1e-4,-34.429073 H 42.4918 v 4.876179 c 1.52042,-2.345888 4.23965,-5.684002 10.31385,-5.684002 z M 13.26982,31.179999 H 24.71363 V 65.609972 H 13.26982 Z" />
  <path
     d="m -295.56203,67.697473 h 31.62 v -10.382 h -20.175 v -39.605 h -11.445 z m 47.629,0 v -34.43 h -11.444 v 34.43 z m -5.721,-39.13 c 3.99,0 6.474,-2.644 6.474,-5.95 -0.074,-3.378 -2.484,-5.947 -6.398,-5.947 -3.915,0 -6.475,2.57 -6.475,5.947 0,3.306 2.484,5.95 6.324,5.95 z m 11.034,39.13 h 11.444 v -19.228 c 0,-1.029 0.074,-2.058 0.377,-2.791 0.826,-2.056 2.709,-4.186 5.871,-4.186 4.142,0 5.799,3.158 5.799,7.784 v 18.42 h 11.442 v -19.741 c 0,-10.576 -5.646,-15.497 -13.176,-15.497 -6.173,0 -8.884,3.451 -10.39,5.802 h 0.077 v -4.993 h -11.444 c 0.151,3.231 0,34.43 0,34.43 z m 51.078,-49.987 h -11.444 v 49.987 h 11.444 v -11.163 l 2.86,-3.601 8.96,14.764 h 14.078 l -15.056,-21.373 13.174,-14.54 h -13.776 c 0,0 -9.411,13.008 -10.24,14.552 z"
     id="path2521" />
  <path
     d="m -135.04103,53.335473 c 0.151,-0.884 0.377,-2.58 0.377,-4.498 0,-8.9 -4.518,-17.936 -16.413,-17.936 -12.724,0 -18.597,10.063 -18.597,19.19 0,11.288 7.153,18.337 19.65,18.337 4.97,0 9.561,-0.732 13.327,-2.275 l -1.506,-7.558 c -3.088,1.024 -6.25,1.537 -10.164,1.537 -5.345,0 -10.012,-2.195 -10.389,-6.871 l 23.715,0.072 z m -23.79,-7.742 c 0.301,-2.938 2.26,-7.273 7.153,-7.273 5.194,0 6.4,4.628 6.4,7.273 h -13.552 z m 52.414,-27.883 v 17.304 h -0.151 c -1.657,-2.422 -5.12,-4.038 -9.71,-4.038 -8.81,0 -16.564,7.05 -16.49,19.094 0,11.164 7.003,18.435 15.735,18.435 4.744,0 9.26,-2.058 11.52,-6.024 h 0.225 l 0.453,5.216 h 10.163 c -0.15,-2.424 -0.302,-6.61 -0.302,-10.723 v -39.265 h -11.444 z m 0,34.05 c 0,0.88 -0.075,1.763 -0.227,2.495 -0.675,3.16 -3.386,5.361 -6.699,5.361 -4.742,0 -7.83,-3.818 -7.83,-9.84 0,-5.654 2.637,-10.208 7.906,-10.208 3.538,0 6.022,2.423 6.7,5.433 0.15,0.663 0.15,1.398 0.15,2.058 v 4.7 z"
     id="path2523" />
</svg>
